<svg height="512pt" viewBox="0 0 512 512" width="512pt" xmlns="http://www.w3.org/2000/svg"><path d="m256 0c-141.386719 0-256 114.613281-256 256s114.613281 256 256 256 256-114.613281 256-256c.011719-67.898438-26.957031-133.019531-74.96875-181.03125s-113.132812-74.9804688-181.03125-74.96875zm0 467.863281c-117.007812 0-211.863281-94.855469-211.863281-211.863281s94.855469-211.863281 211.863281-211.863281 211.863281 94.855469 211.863281 211.863281c-.132812 116.953125-94.910156 211.730469-211.863281 211.863281zm0 0" fill="#2fa8cc"/><path d="m369.277344 199.105469-105.933594 158.894531c-1.636719 2.457031-4.390625 3.933594-7.34375 3.933594s-5.707031-1.476563-7.34375-3.933594l-105.933594-158.894531c-1.804687-2.710938-1.972656-6.195313-.4375-9.0625 1.535156-2.871094 4.527344-4.664063 7.785156-4.664063h211.859376c3.257812 0 6.25 1.792969 7.785156 4.664063 1.535156 2.867187 1.367187 6.351562-.4375 9.0625zm0 0" fill="#3b97d3"/><path d="m369.257812 199.0625-105.929687 158.894531c-1.59375 2.5-4.363281 4.003907-7.328125 3.972657v-176.550782h105.929688c3.253906-.019531 6.253906 1.761719 7.789062 4.632813 1.539062 2.867187 1.359375 6.351562-.460938 9.050781zm0 0" fill="#2980ba"/></svg>